<?xml version="1.0" standalone="no"?><!DOCTYPE svg PUBLIC "-//W3C//DTD SVG 1.1//EN" "http://www.w3.org/Graphics/SVG/1.1/DTD/svg11.dtd"><svg t="1627543559211" class="icon" viewBox="0 0 1024 1024" version="1.1" xmlns="http://www.w3.org/2000/svg" p-id="4177" xmlns:xlink="http://www.w3.org/1999/xlink" width="64" height="64"><defs><style type="text/css">@font-face { font-family: feedback-iconfont; src: url("//at.alicdn.com/t/font_1031158_1uhr8ri0pk5.eot?#iefix") format("embedded-opentype"), url("//at.alicdn.com/t/font_1031158_1uhr8ri0pk5.woff2") format("woff2"), url("//at.alicdn.com/t/font_1031158_1uhr8ri0pk5.woff") format("woff"), url("//at.alicdn.com/t/font_1031158_1uhr8ri0pk5.ttf") format("truetype"), url("//at.alicdn.com/t/font_1031158_1uhr8ri0pk5.svg#iconfont") format("svg"); }
</style></defs><path d="M672 334.56L512 704 333.28 291.2a32 32 0 0 0-50.88-10.88 32.96 32.96 0 0 0-7.2 37.76l178.08 410.88a64 64 0 0 0 117.44 0L740.8 336a88 88 0 0 1 144 30.72A400 400 0 1 1 455.36 115.84a406.88 406.88 0 0 1 180.16 16 32.8 32.8 0 0 0 37.28-10.24 32 32 0 0 0-16-49.92A464 464 0 1 0 974.88 544a461.12 461.12 0 0 0-39.68-222.24 139.04 139.04 0 0 0-205.76-56.96A165.28 165.28 0 0 0 672 334.56z" p-id="4178" fill="#f0f0f0"></path></svg>